<?xml version="1.0" encoding="UTF-8"?>
<svg version="1.1" xmlns="http://www.w3.org/2000/svg" width="1024" height="1024">
<path d="M0 0 C337.92 0 675.84 0 1024 0 C1024 337.92 1024 675.84 1024 1024 C686.08 1024 348.16 1024 0 1024 C0 686.08 0 348.16 0 0 Z " fill="#FCFCFC" transform="translate(0,0)"/>
<path d="M0 0 C0.95769287 -0.00241196 1.91538574 -0.00482391 2.90209961 -0.00730896 C4.92273101 -0.00633141 6.94338949 0.00704024 8.96386719 0.03198242 C12.05236009 0.0662936 15.13799116 0.05263584 18.2265625 0.03320312 C20.19272048 0.04010182 22.1588711 0.04977441 24.125 0.0625 C25.04595459 0.05754013 25.96690918 0.05258026 26.91577148 0.04747009 C31.14753584 0.12499886 33.46237187 0.25406569 37.12109375 2.53930664 C43.44525956 9.34621499 42.0403022 24.44720476 41.98005676 33.29223633 C41.54165412 44.34383832 38.47818384 50.85518485 30.64746094 58.60571289 C26.485741 62.44736829 22.11437699 66.0346057 17.68635559 69.5634613 C11.83382075 74.34895501 8.92165325 79.39183992 7.43359375 86.73046875 C7.57754957 92.20078973 8.28323292 96.22455477 11.08984375 100.97265625 C12.0625 102.62890625 12.0625 102.62890625 13.0625 105.62890625 C14.76019234 106.73059609 14.76019234 106.73059609 17.0625 107.62890625 C18.135 108.16515625 19.2075 108.70140625 20.3125 109.25390625 C25.98787227 111.33487608 30.60350513 111.10461815 36.31640625 109.609375 C37.55261719 109.28582031 38.78882813 108.96226562 40.0625 108.62890625 C40.16152133 114.37633254 40.23404082 120.12326017 40.28222656 125.87133789 C40.30231774 127.82585298 40.32959589 129.78030815 40.36425781 131.73461914 C40.41288601 134.54718833 40.4354936 137.35896152 40.453125 140.171875 C40.47377014 141.04289352 40.49441528 141.91391205 40.51568604 142.81132507 C40.51721126 146.95336409 40.41278384 149.07038812 38.16308594 152.6574707 C35.27618089 155.36688008 33.72526099 155.75681949 29.87573242 155.82177734 C29.01110886 155.83784027 28.14648529 155.8539032 27.25566101 155.87045288 C23.29959897 155.91491234 19.34370462 155.95596805 15.38745117 155.97900391 C13.30107469 155.99556374 11.21475493 156.02285403 9.12866211 156.06103516 C6.1206316 156.11580889 3.11393083 156.13767867 0.10546875 156.15234375 C-0.824897 156.17501312 -1.75526276 156.1976825 -2.71382141 156.22103882 C-7.06155109 156.20686256 -9.32487245 156.02919553 -13.03466797 153.60522461 C-15.4437678 149.83702651 -15.57677627 146.81284976 -15.42578125 142.484375 C-15.41870651 141.71458817 -15.41163177 140.94480133 -15.40434265 140.15168762 C-15.37646925 137.70558322 -15.31375137 135.26181241 -15.25 132.81640625 C-15.22490768 131.15302798 -15.20209613 129.48961363 -15.18164062 127.82617188 C-15.12666671 123.75952468 -15.04044927 119.69461036 -14.9375 115.62890625 C-14.39407959 115.36843506 -13.85065918 115.10796387 -13.29077148 114.83959961 C-12.21678101 114.31571655 -12.21678101 114.31571655 -11.12109375 113.78125 C-10.05846313 113.26679321 -10.05846313 113.26679321 -8.97436523 112.74194336 C-6.0265165 111.13110285 -4.03601173 109.2361481 -1.9375 106.62890625 C-1.28911142 104.03445202 -1.28911142 104.03445202 -0.9375 101.62890625 C-2.66444675 101.49280712 -4.39454722 101.39641397 -6.125 101.31640625 C-7.08792969 101.25839844 -8.05085938 101.20039062 -9.04296875 101.140625 C-12.15631776 101.34291218 -12.15631776 101.34291218 -14.01098633 104.11572266 C-18.13888813 107.66061472 -21.37485459 107.36915112 -26.65625 107.328125 C-27.59174683 107.3352803 -28.52724365 107.34243561 -29.49108887 107.34980774 C-31.46458993 107.35757557 -33.43817709 107.35259204 -35.41162109 107.33569336 C-38.42840825 107.3164642 -41.44058983 107.35586478 -44.45703125 107.40039062 C-46.3776069 107.40068099 -48.29818678 107.39754086 -50.21875 107.390625 C-51.56737122 107.41354866 -51.56737122 107.41354866 -52.9432373 107.43693542 C-57.43606179 107.35347597 -59.38079019 107.06529662 -63.0078125 104.22216797 C-65.89321105 99.96159087 -65.61827953 95.3523354 -65.53125 90.375 C-65.53129028 89.39652603 -65.53133057 88.41805206 -65.53137207 87.40992737 C-65.5260265 85.34817049 -65.50848514 83.28641346 -65.47949219 81.22485352 C-65.43758894 78.07309602 -65.43843096 74.9234739 -65.4453125 71.77148438 C-65.43482086 69.7643081 -65.4218829 67.75714281 -65.40625 65.75 C-65.40604858 64.81030869 -65.40584717 63.87061737 -65.40563965 62.90245056 C-65.31772055 58.03354113 -65.17471478 54.5441729 -61.9375 50.62890625 C-59.5854994 49.45290595 -58.20015599 49.50806084 -55.57958984 49.51538086 C-54.22841568 49.51549416 -54.22841568 49.51549416 -52.84994507 49.51560974 C-51.87594757 49.52077103 -50.90195007 49.52593231 -49.8984375 49.53125 C-48.90244537 49.53266495 -47.90645325 49.5340799 -46.88027954 49.53553772 C-43.69098947 49.54114689 -40.50176894 49.55370095 -37.3125 49.56640625 C-35.15364685 49.57142007 -32.99479259 49.57598318 -30.8359375 49.58007812 C-25.5364345 49.5911193 -20.23697222 49.60786637 -14.9375 49.62890625 C-14.96368408 48.32219971 -14.98986816 47.01549316 -15.0168457 45.66918945 C-15.10744324 40.81454637 -15.16478445 35.9599778 -15.2121582 31.10473633 C-15.23728051 29.00467355 -15.27138458 26.90469802 -15.31469727 24.80493164 C-15.37544871 21.78379785 -15.40373263 18.76382129 -15.42578125 15.7421875 C-15.45158768 14.80554764 -15.4773941 13.86890778 -15.50398254 12.90388489 C-15.50582227 8.6143944 -15.31880092 6.24651526 -13.02807617 2.53613281 C-8.65074163 -0.16516567 -5.05392384 -0.07275709 0 0 Z " fill="#15959F" transform="translate(247.9375,419.37109375)"/>
<path d="M0 0 C5.94 0 11.88 0 18 0 C20.17860974 4.8853673 22.3425885 9.77635304 24.48046875 14.6796875 C28.91097544 24.83079136 33.3693513 34.96704339 38.0625 45 C38.43205811 45.80034668 38.80161621 46.60069336 39.18237305 47.42529297 C40.81553872 51.39779851 40.81553872 51.39779851 44 54 C44.36351562 52.82953125 44.72703125 51.6590625 45.1015625 50.453125 C47.45561071 43.3937401 50.46102565 36.59129145 53.375 29.75 C54.51047417 27.0792459 55.64338908 24.40742942 56.7734375 21.734375 C57.04750427 21.08690308 57.32157104 20.43943115 57.60394287 19.77233887 C59.8812293 14.35823287 61.98882986 8.89125388 64.04150391 3.38769531 C65 1 65 1 66 0 C71.94 0 77.88 0 84 0 C84 26.73 84 53.46 84 81 C79.05 81 74.1 81 69 81 C68.67 64.5 68.34 48 68 31 C64.225625 39.724375 64.225625 39.724375 60.375 48.625 C59.59431152 50.4292041 58.81362305 52.2334082 58.00927734 54.09228516 C53.98838445 63.38728579 49.98109102 72.68787486 46 82 C43.36 82 40.72 82 38 82 C37.68361572 81.20118408 37.36723145 80.40236816 37.04125977 79.5793457 C35.81894812 76.49736947 34.59397833 73.41647373 33.36743164 70.33618164 C32.84592335 69.02505571 32.32535549 67.71355516 31.8059082 66.40161133 C27.09115471 54.49720441 22.04740269 42.77727294 17 31 C16.67 47.5 16.34 64 16 81 C10.72 81 5.44 81 0 81 C0 54.27 0 27.54 0 0 Z " fill="#15949F" transform="translate(375,460)"/>
<path d="M0 0 C5.28 0 10.56 0 16 0 C16 26.73 16 53.46 16 81 C11.05 81 6.1 81 1 81 C1 78.69 1 76.38 1 74 C0.49210938 74.40992188 -0.01578125 74.81984375 -0.5390625 75.2421875 C-1.22742188 75.78101563 -1.91578125 76.31984375 -2.625 76.875 C-3.29789063 77.40867187 -3.97078125 77.94234375 -4.6640625 78.4921875 C-11.22872001 82.72957512 -18.43514614 82.85337952 -26 82 C-34.02383423 79.5412601 -39.32933891 74.98245209 -43.25 67.66796875 C-47.07023549 58.82040948 -47.61537833 48.74640514 -45.01171875 39.484375 C-41.49212983 30.63636819 -37.08662362 24.7666471 -28.25 20.75 C-20.60587574 18.98597132 -13.08266932 19.47837592 -6 23 C-3.525 24.98 -3.525 24.98 -1 27 C-0.67 18.09 -0.34 9.18 0 0 Z " fill="#14939E" transform="translate(587,460)"/>
<path d="M0 0 C7.80187952 5.01929791 11.78011917 12.1204767 14 21 C14 24.63 14 28.26 14 32 C-0.52 32 -15.04 32 -30 32 C-27.95338839 40.30464383 -27.95338839 40.30464383 -25.0625 43 C-20.25378385 45.33149874 -15.25753795 45.52757301 -10 45 C-5.66303391 43.44927204 -5.66303391 43.44927204 -3 40 C2.11365014 41.0681847 7.07227969 42.23107476 12 44 C9.16783135 50.28768542 4.26998111 53.73992597 -2 56.375 C-11.51145034 59.4887898 -21.83783252 59.46227918 -30.92578125 55.12109375 C-31.61027344 54.75113281 -32.29476563 54.38117187 -33 54 C-34.0725 53.443125 -35.145 52.88625 -36.25 52.3125 C-42.79512531 46.80864463 -46.51919143 39.5954204 -47.40625 31.1171875 C-47.79208128 20.54342557 -46.33494134 12.54260219 -39.4296875 4.07421875 C-28.85966445 -6.21495828 -12.53211282 -6.49741849 0 0 Z " fill="#13939D" transform="translate(517,484)"/>
<path d="M0 0 C3.60492304 3.78979089 5.09818795 6.82251959 5.19287109 12.02490234 C5.20893402 12.82938812 5.22499695 13.6338739 5.24154663 14.46273804 C5.28614742 18.13139837 5.32704261 21.79988195 5.35009766 25.46875 C5.36666959 27.40279157 5.39397593 29.33677159 5.43212891 31.27050781 C5.48692096 34.06347311 5.50877242 36.85500703 5.5234375 39.6484375 C5.54610687 40.51004486 5.56877625 41.37165222 5.59213257 42.2593689 C5.57764574 46.38064218 5.31507571 48.50091402 3.07202148 52.05395508 C-1.24448185 54.78834657 -4.66721706 54.63303907 -9.67578125 54.48828125 C-10.6009404 54.48120651 -11.52609955 54.47413177 -12.47929382 54.46684265 C-15.42453003 54.43892815 -18.36784173 54.37619557 -21.3125 54.3125 C-23.31312352 54.2874133 -25.31377694 54.26460078 -27.31445312 54.24414062 C-32.21037316 54.18911108 -37.10486068 54.10285901 -42 54 C-38.65662724 50.01530053 -35.29086415 46.17346482 -31.51171875 42.58984375 C-30.32932617 41.44612305 -30.32932617 41.44612305 -29.12304688 40.27929688 C-27.48723032 38.7064468 -25.8438561 37.14142256 -24.19335938 35.58398438 C-23.02063477 34.44219727 -23.02063477 34.44219727 -21.82421875 33.27734375 C-21.11354248 32.59921631 -20.40286621 31.92108887 -19.6706543 31.22241211 C-17.26721117 28.02519703 -17 24.92749868 -17 21 C-20.13543116 20.01291982 -21.80568157 19.57653062 -25 20 C-28.23022074 22.04222362 -30.79553979 24.65514644 -33.44580078 27.39453125 C-35.91563732 29.94584213 -38.43859644 32.44377263 -40.95288086 34.95117188 C-42.30690287 36.30632426 -43.65548456 37.66693652 -44.99829102 39.03320312 C-45.61760498 39.66162109 -46.23691895 40.29003906 -46.875 40.9375 C-47.42929687 41.50339844 -47.98359375 42.06929687 -48.5546875 42.65234375 C-51.3934412 45.29928977 -54.13452623 45.40868196 -57.953125 45.33203125 C-60 45 -60 45 -63.0625 43.0625 C-65.44336888 39.29919113 -65.24712975 37.59210781 -64.65109253 33.32067871 C-63.53094694 29.32816167 -61.06959405 26.98182499 -58.12890625 24.171875 C-57.23436989 23.27653046 -57.23436989 23.27653046 -56.32176208 22.36309814 C-55.06101965 21.11002195 -53.79052286 19.86669163 -52.51098633 18.6328125 C-50.57642372 16.76345442 -48.67861517 14.86208098 -46.78320312 12.953125 C-35.00817644 1.2680979 -16.30584416 -11.67393 0 0 Z " fill="#13939E" transform="translate(333,472)"/>
<path d="M0 0 C5.28 0 10.56 0 16 0 C16 14.52 16 29.04 16 44 C20.13072569 39.88372837 20.13072569 39.88372837 24.0078125 35.58984375 C24.77544922 34.69362305 24.77544922 34.69362305 25.55859375 33.77929688 C26.07550781 33.17150391 26.59242188 32.56371094 27.125 31.9375 C27.64964844 31.32583984 28.17429687 30.71417969 28.71484375 30.08398438 C29.22402344 29.48779297 29.73320313 28.89160156 30.2578125 28.27734375 C30.74822021 27.71096191 31.23862793 27.14458008 31.74389648 26.56103516 C33.12902188 24.93844266 33.12902188 24.93844266 34.29296875 22.58203125 C36.85483268 20.20776376 39.26940184 20.59393617 42.66210938 20.6484375 C43.91217773 20.69871094 43.91217773 20.69871094 45.1875 20.75 C46.03248047 20.76804687 46.87746094 20.78609375 47.74804688 20.8046875 C49.83251573 20.85179414 51.91640144 20.92353767 54 21 C52.34815382 24.91723524 49.69584833 27.89094064 46.9375 31.0625 C45.94974809 32.21287862 44.96278256 33.36393286 43.9765625 34.515625 C43.4805957 35.09376953 42.98462891 35.67191406 42.47363281 36.26757812 C38.91273984 40.45381016 35.46323104 44.73295731 32 49 C33.3793466 51.97233635 34.98801546 54.43829948 37.01171875 57.01171875 C37.60533203 57.77033203 38.19894531 58.52894531 38.81054688 59.31054688 C39.42994141 60.09494141 40.04933594 60.87933594 40.6875 61.6875 C41.89973958 63.23307292 43.11197917 64.77864583 44.32421875 66.32421875 C46.21916393 68.73629106 48.11599927 71.14676027 50.01806641 73.55322266 C50.6579248 74.36710449 51.2977832 75.18098633 51.95703125 76.01953125 C52.54073486 76.75921143 53.12443848 77.4988916 53.72583008 78.26098633 C55 80 55 80 55 81 C39.02592087 83.06646198 39.02592087 83.06646198 34.24755859 79.80322266 C31.19744302 76.58723977 29.11266306 72.78559044 27.04541016 68.890625 C25.42902601 65.96739314 23.48835543 63.37160324 21.5 60.6875 C20.8709375 59.80449219 20.241875 58.92148437 19.59375 58.01171875 C18.15117097 55.89918139 18.15117097 55.89918139 16 55 C16 63.58 16 72.16 16 81 C10.72 81 5.44 81 0 81 C0 54.27 0 27.54 0 0 Z " fill="#12939D" transform="translate(807,460)"/>
<path d="M0 0 C4.91982283 3.91349543 8.4521638 9.14999819 9.34875488 15.45092773 C9.4600196 18.18445566 9.4505029 20.88989428 9.390625 23.625 C9.38496521 24.61250244 9.37930542 25.60000488 9.37347412 26.61743164 C9.35123369 29.74546518 9.30106027 32.87231761 9.25 36 C9.22991907 38.13149378 9.2116711 40.26300566 9.1953125 42.39453125 C9.15140929 47.59680342 9.08246753 52.79820204 9 58 C3.72 58 -1.56 58 -7 58 C-7.0093457 56.84999512 -7.01869141 55.69999023 -7.02832031 54.51513672 C-7.06831384 50.23203368 -7.13409835 45.94964187 -7.20751953 41.66699219 C-7.23567498 39.81649947 -7.25691646 37.96588771 -7.27099609 36.11523438 C-7.2925012 33.4486012 -7.3391886 30.78339116 -7.390625 28.1171875 C-7.39185364 27.29507782 -7.39308228 26.47296814 -7.39434814 25.62594604 C-7.52806921 20.33399295 -8.41722249 17.15494757 -12 13 C-16.53625191 11.48791603 -20.36615162 11.31015291 -24.8125 13.1875 C-27.79742553 15.66072401 -28.78609862 18.04056968 -29.20904541 21.91494751 C-29.32682317 24.21141735 -29.38108611 26.50153302 -29.4140625 28.80078125 C-29.43342865 29.63715622 -29.4527948 30.47353119 -29.4727478 31.33525085 C-29.53230192 33.9942317 -29.57883174 36.6532564 -29.625 39.3125 C-29.66320206 41.12046109 -29.70225509 42.92840442 -29.7421875 44.73632812 C-29.83798345 49.15740698 -29.92210331 53.57857101 -30 58 C-35.28 58 -40.56 58 -46 58 C-46 38.2 -46 18.4 -46 -2 C-41.05 -2 -36.1 -2 -31 -2 C-31 0.31 -31 2.62 -31 5 C-30.49210938 4.59007812 -29.98421875 4.18015625 -29.4609375 3.7578125 C-20.36844106 -3.3595349 -10.57848988 -5.7532138 0 0 Z " fill="#14949F" transform="translate(785,483)"/>
<path d="M0 0 C5.28 0 10.56 0 16 0 C16 22.11 16 44.22 16 67 C26.56 67 37.12 67 48 67 C48 71.62 48 76.24 48 81 C32.16 81 16.32 81 0 81 C0 54.27 0 27.54 0 0 Z " fill="#13949E" transform="translate(651,460)"/>
<path d="M0 0 C5.28 0 10.56 0 16 0 C16 19.47 16 38.94 16 59 C10.72 59 5.44 59 0 59 C0 39.53 0 20.06 0 0 Z " fill="#17949F" transform="translate(620,482)"/>
<path d="M0 0 C5.28 0 10.56 0 16 0 C16.02255549 7.54498589 16.04091769 15.08995931 16.05181217 22.63497066 C16.05703989 26.13808885 16.0641355 29.64118285 16.07543945 33.14428711 C16.08834206 37.16780841 16.09322912 41.19130414 16.09765625 45.21484375 C16.10281754 46.47836166 16.10797882 47.74187958 16.11329651 49.04368591 C16.11340981 50.78537804 16.11340981 50.78537804 16.11352539 52.56225586 C16.115746 53.59039902 16.11796661 54.61854218 16.12025452 55.67784119 C16 58 16 58 15 59 C10.05 59 5.1 59 0 59 C0 39.53 0 20.06 0 0 Z " fill="#16949F" transform="translate(709,482)"/>
<path d="M0 0 C4.65465916 1.59561338 8.09129912 4.24509823 10.33984375 8.7421875 C12.16932376 14.99922565 12.07242891 21.64890585 9.375 27.5625 C5.1795429 31.86836387 2.09736369 34.22534398 -4 34.5 C-8.69606784 34.28814732 -11.47905697 33.26331306 -15 30 C-18.90438285 23.51760359 -18.77939772 17.37362786 -18 10 C-14.62405243 2.46904005 -8.29387047 -1.55610336 0 0 Z " fill="#FAFBFB" transform="translate(576,494)"/>
<path d="M0 0 C4.2493197 2.37621338 7.15235453 5.48748126 9 10 C9 10.99 9 11.98 9 13 C0.09 13 -8.82 13 -18 13 C-16.86166008 5.03162055 -16.86166008 5.03162055 -12 1 C-8.23885037 -0.88057482 -4.08532555 -0.65340782 0 0 Z " fill="#F9FBFB" transform="translate(505,492)"/>
<path d="M0 0 C3.0625 1.5625 3.0625 1.5625 5 4 C5.6171165 7.83983599 5.53692533 10.00285296 3.6875 13.4375 C-0.6749357 15.97379983 -5.08895747 15.72286969 -10 15 C-12.6875 13.4375 -12.6875 13.4375 -14 11 C-14.5625 7.5 -14.5625 7.5 -14 4 C-10.25059873 -0.71698869 -5.62334936 -0.98637412 0 0 Z " fill="#12909B" transform="translate(632,459)"/>
<path d="M0 0 C2.64093338 0.85651893 3.65403428 1.53871238 5.3125 3.75 C6.28307319 6.92642136 5.98874457 8.83601738 5 12 C2.24126252 15.08329483 0.59538479 15.90431316 -3.5 16.5625 C-7 16 -7 16 -9.9375 13.875 C-12 11 -12 11 -12.625 8 C-11.159287 0.96457758 -6.70618085 -0.85351393 0 0 Z " fill="#13919C" transform="translate(720,459)"/>
<path d="M0 0 C2.27395113 2.27395113 2.93391111 3.86285344 3.12025452 7.06913757 C3.1169236 8.25827507 3.1169236 8.25827507 3.11352539 9.47143555 C3.11344986 10.37214279 3.11337433 11.27285004 3.11329651 12.20085144 C3.10813522 13.16968765 3.10297394 14.13852386 3.09765625 15.13671875 C3.0962413 16.13129593 3.09482635 17.12587311 3.09336853 18.15058899 C3.08776761 21.32958982 3.07521496 24.50852043 3.0625 27.6875 C3.05748512 29.84179586 3.05292219 31.99609282 3.04882812 34.15039062 C3.03779787 39.43362084 3.02053262 44.71679851 3 50 C-2.28 50 -7.56 50 -13 50 C-13.495 29.21 -13.495 29.21 -14 8 C-11.19401835 10.80598165 -11.01241041 12.61154081 -10.88647461 16.5534668 C-10.8866326 18.01872699 -10.89226181 19.48399324 -10.90234375 20.94921875 C-10.9037587 21.72183548 -10.90517365 22.49445221 -10.90663147 23.29048157 C-10.91222534 25.75619389 -10.92477667 28.22181515 -10.9375 30.6875 C-10.94251579 32.36002473 -10.94707856 34.03255088 -10.95117188 35.70507812 C-10.96219276 39.80342046 -10.97945316 43.90169479 -11 48 C-7.04 48 -3.08 48 1 48 C0.67 32.16 0.34 16.32 0 0 Z " fill="#068892" transform="translate(791,491)"/>
<path d="M0 0 C4.95 0 9.9 0 15 0 C15 22.44 15 44.88 15 68 C14.34 67.67 13.68 67.34 13 67 C13 45.55 13 24.1 13 2 C8.71 2 4.42 2 0 2 C0 1.34 0 0.68 0 0 Z " fill="#2B98A2" transform="translate(652,460)"/>
<path d="M0 0 C5.94 0 11.88 0 18 0 C16.11656068 3.76687864 15.30867531 4.79421646 12 7 C12.66 5.68 13.32 4.36 14 3 C9.05 2.67 4.1 2.34 -1 2 C-0.67 1.34 -0.34 0.68 0 0 Z " fill="#158B97" transform="translate(843,481)"/>
<path d="M0 0 C0.7425 0.763125 1.485 1.52625 2.25 2.3125 C4.76540421 4.95993208 4.76540421 4.95993208 7.1875 6.375 C9.88431509 8.79283422 10.21902045 11.55067365 11 15 C6.82616605 11.07168569 3.10605574 6.83520017 0 2 C0 1.34 0 0.68 0 0 Z " fill="#0E848F" transform="translate(830,521)"/>
<path d="M0 0 C3.3 0 6.6 0 10 0 C10 0.99 10 1.98 10 3 C7.03 3 4.06 3 1 3 C0.67 2.01 0.34 1.02 0 0 Z " fill="#249BA5" transform="translate(562,480)"/>
<path d="M0 0 C1.48117801 0.28127421 2.95993249 0.57533732 4.4375 0.875 C5.67306641 1.11863281 5.67306641 1.11863281 6.93359375 1.3671875 C7.61550781 1.57601562 8.29742188 1.78484375 9 2 C9.33 2.66 9.66 3.32 10 4 C8.14375 3.7215625 8.14375 3.7215625 6.25 3.4375 C3.23720423 3.05288777 0.89989173 2.9125406 -2 4 C-1.34 2.68 -0.68 1.36 0 0 Z " fill="#0D838E" transform="translate(514,524)"/>
</svg>
